<svg aria-roledescription="quadrantChart" role="graphics-document document" viewBox="0 0 500 500" style="max-width: 100%; background: rgba(0, 0, 0, 0);" xmlns="http://www.w3.org/2000/svg" width="100%" id="graph-div" height="100%" xmlns:xlink="http://www.w3.org/1999/xlink"><style>@import url("https://cdnjs.cloudflare.com/ajax/libs/font-awesome/6.2.0/css/all.min.css");'</style><style>#graph-div{font-family:"trebuchet ms",verdana,arial,sans-serif;font-size:16px;fill:#ccc;}#graph-div .error-icon{fill:#a44141;}#graph-div .error-text{fill:#ddd;stroke:#ddd;}#graph-div .edge-thickness-normal{stroke-width:2px;}#graph-div .edge-thickness-thick{stroke-width:3.5px;}#graph-div .edge-pattern-solid{stroke-dasharray:0;}#graph-div .edge-pattern-dashed{stroke-dasharray:3;}#graph-div .edge-pattern-dotted{stroke-dasharray:2;}#graph-div .marker{fill:lightgrey;stroke:lightgrey;}#graph-div .marker.cross{stroke:lightgrey;}#graph-div svg{font-family:"trebuchet ms",verdana,arial,sans-serif;font-size:16px;}#graph-div :root{--mermaid-font-family:"trebuchet ms",verdana,arial,sans-serif;}</style><g></g><g class="main"><g class="quadrants"><g class="quadrant"><rect fill="#1f2020" height="212" width="232" y="45" x="263"></rect><text transform="translate(379, 50) rotate(0)" text-anchor="middle" dominant-baseline="hanging" font-size="16" fill="#e0dfdf" y="0" x="0">LET'S DO IT!!!</text></g><g class="quadrant"><rect fill="#242525" height="212" width="232" y="45" x="31"></rect><text transform="translate(147, 50) rotate(0)" text-anchor="middle" dominant-baseline="hanging" font-size="16" fill="#dbdada" y="0" x="0">I'll do it... ugh</text></g><g class="quadrant"><rect fill="#292a2a" height="212" width="232" y="257" x="31"></rect><text transform="translate(147, 262) rotate(0)" text-anchor="middle" dominant-baseline="hanging" font-size="16" fill="#d6d5d5" y="0" x="0">Um... what?</text></g><g class="quadrant"><rect fill="#2e2f2f" height="212" width="232" y="257" x="263"></rect><text transform="translate(379, 262) rotate(0)" text-anchor="middle" dominant-baseline="hanging" font-size="16" fill="#d1d0d0" y="0" x="0">Want to grow...</text></g></g><g class="border"><line style="stroke: rgb(204, 204, 204); stroke-width: 2;" y2="45" x2="496" y1="45" x1="30"></line><line style="stroke: rgb(204, 204, 204); stroke-width: 2;" y2="468" x2="495" y1="46" x1="495"></line><line style="stroke: rgb(204, 204, 204); stroke-width: 2;" y2="469" x2="496" y1="469" x1="30"></line><line style="stroke: rgb(204, 204, 204); stroke-width: 2;" y2="468" x2="31" y1="46" x1="31"></line><line style="stroke: rgb(204, 204, 204); stroke-width: 1;" y2="468" x2="263" y1="46" x1="263"></line><line style="stroke: rgb(204, 204, 204); stroke-width: 1;" y2="257" x2="494" y1="257" x1="32"></line></g><g class="data-points"><g class="data-point"><circle fill="hsl(180, 1.5873015873%, NaN%)" r="5" cy="278.20000000000005" cx="402.2"></circle><text transform="translate(402.2, 283.20000000000005) rotate(0)" text-anchor="middle" dominant-baseline="hanging" font-size="12" fill="#e0dfdf" y="0" x="0">MongoDB</text></g><g class="data-point"><circle fill="hsl(180, 1.5873015873%, NaN%)" r="5" cy="426.6" cx="77.4"></circle><text transform="translate(77.4, 431.6) rotate(0)" text-anchor="middle" dominant-baseline="hanging" font-size="12" fill="#e0dfdf" y="0" x="0">Visual Basic</text></g><g class="data-point"><circle fill="hsl(180, 1.5873015873%, NaN%)" r="5" cy="235.79999999999998" cx="239.8"></circle><text transform="translate(239.8, 240.79999999999998) rotate(0)" text-anchor="middle" dominant-baseline="hanging" font-size="12" fill="#e0dfdf" y="0" x="0">FE Frameworks</text></g><g class="data-point"><circle fill="hsl(180, 1.5873015873%, NaN%)" r="5" cy="193.39999999999998" cx="286.2"></circle><text transform="translate(286.2, 198.39999999999998) rotate(0)" text-anchor="middle" dominant-baseline="hanging" font-size="12" fill="#e0dfdf" y="0" x="0">Javascript</text></g><g class="data-point"><circle fill="hsl(180, 1.5873015873%, NaN%)" r="5" cy="214.60000000000002" cx="286.2"></circle><text transform="translate(286.2, 219.60000000000002) rotate(0)" text-anchor="middle" dominant-baseline="hanging" font-size="12" fill="#e0dfdf" y="0" x="0">HTML &amp; CSS</text></g><g class="data-point"><circle fill="hsl(180, 1.5873015873%, NaN%)" r="5" cy="172.20000000000002" cx="170.2"></circle><text transform="translate(170.2, 177.20000000000002) rotate(0)" text-anchor="middle" dominant-baseline="hanging" font-size="12" fill="#e0dfdf" y="0" x="0">Relational DB</text></g><g class="data-point"><circle fill="hsl(180, 1.5873015873%, NaN%)" r="5" cy="129.79999999999998" cx="471.8"></circle><text transform="translate(471.8, 134.79999999999998) rotate(0)" text-anchor="middle" dominant-baseline="hanging" font-size="12" fill="#e0dfdf" y="0" x="0">Docker</text></g><g class="data-point"><circle fill="hsl(180, 1.5873015873%, NaN%)" r="5" cy="151" cx="471.8"></circle><text transform="translate(471.8, 156) rotate(0)" text-anchor="middle" dominant-baseline="hanging" font-size="12" fill="#e0dfdf" y="0" x="0">k8s</text></g><g class="data-point"><circle fill="hsl(180, 1.5873015873%, NaN%)" r="5" cy="108.60000000000001" cx="286.2"></circle><text transform="translate(286.2, 113.60000000000001) rotate(0)" text-anchor="middle" dominant-baseline="hanging" font-size="12" fill="#e0dfdf" y="0" x="0">Virtualization</text></g><g class="data-point"><circle fill="hsl(180, 1.5873015873%, NaN%)" r="5" cy="129.79999999999998" cx="309.4"></circle><text transform="translate(309.4, 134.79999999999998) rotate(0)" text-anchor="middle" dominant-baseline="hanging" font-size="12" fill="#e0dfdf" y="0" x="0">IaC</text></g><g class="data-point"><circle fill="hsl(180, 1.5873015873%, NaN%)" r="5" cy="138.28" cx="193.4"></circle><text transform="translate(193.4, 143.28) rotate(0)" text-anchor="middle" dominant-baseline="hanging" font-size="12" fill="#e0dfdf" y="0" x="0">Networking</text></g><g class="data-point"><circle fill="hsl(180, 1.5873015873%, NaN%)" r="5" cy="151" cx="263"></circle><text transform="translate(263, 156) rotate(0)" text-anchor="middle" dominant-baseline="hanging" font-size="12" fill="#e0dfdf" y="0" x="0">CI/CD</text></g><g class="data-point"><circle fill="hsl(180, 1.5873015873%, NaN%)" r="5" cy="108.60000000000001" cx="425.4"></circle><text transform="translate(425.4, 113.60000000000001) rotate(0)" text-anchor="middle" dominant-baseline="hanging" font-size="12" fill="#e0dfdf" y="0" x="0">DevOps</text></g><g class="data-point"><circle fill="hsl(180, 1.5873015873%, NaN%)" r="5" cy="151" cx="100.6"></circle><text transform="translate(100.6, 156) rotate(0)" text-anchor="middle" dominant-baseline="hanging" font-size="12" fill="#e0dfdf" y="0" x="0">Java</text></g><g class="data-point"><circle fill="hsl(180, 1.5873015873%, NaN%)" r="5" cy="87.39999999999999" cx="402.2"></circle><text transform="translate(402.2, 92.39999999999999) rotate(0)" text-anchor="middle" dominant-baseline="hanging" font-size="12" fill="#e0dfdf" y="0" x="0">Agile Dev</text></g><g class="data-point"><circle fill="hsl(180, 1.5873015873%, NaN%)" r="5" cy="87.39999999999999" cx="448.6"></circle><text transform="translate(448.6, 92.39999999999999) rotate(0)" text-anchor="middle" dominant-baseline="hanging" font-size="12" fill="#e0dfdf" y="0" x="0">C#</text></g></g><g class="labels"><g class="label"><text transform="translate(147, 479) rotate(0)" text-anchor="middle" dominant-baseline="hanging" font-size="16" fill="#e0dfdf" y="0" x="0">Low Interest</text></g><g class="label"><text transform="translate(379, 479) rotate(0)" text-anchor="middle" dominant-baseline="hanging" font-size="16" fill="#e0dfdf" y="0" x="0">High Interest</text></g><g class="label"><text transform="translate(5, 363) rotate(-90)" text-anchor="middle" dominant-baseline="hanging" font-size="16" fill="#e0dfdf" y="0" x="0">Low Skill</text></g><g class="label"><text transform="translate(5, 151) rotate(-90)" text-anchor="middle" dominant-baseline="hanging" font-size="16" fill="#e0dfdf" y="0" x="0">High Skill</text></g></g><g class="title"><text transform="translate(250, 10) rotate(0)" text-anchor="middle" dominant-baseline="hanging" font-size="20" fill="#e0dfdf" y="0" x="0">Skills</text></g></g></svg>